<?xml version="1.0" encoding="UTF-8"?>
<svg width="256px" height="256px" viewBox="0 0 256 256" version="1.1" xmlns="http://www.w3.org/2000/svg" xmlns:xlink="http://www.w3.org/1999/xlink">
    <!-- Generator: Sketch 47 (45396) - http://www.bohemiancoding.com/sketch -->
    <title>Artboard</title>
    <desc>Created with Sketch.</desc>
    <defs></defs>
    <g id="Page-1" stroke="none" stroke-width="1" fill="none" fill-rule="evenodd">
        <g id="Artboard" stroke="#979797" fill="#1E1E1E">
            <path d="M76,197.682138 C76.4151717,193.061393 77.6952654,188.399461 79.8403194,183.696203 C81.9853733,178.992944 84.4417693,175.238645 87.2095808,172.433193 C101.46381,183.324949 115.441049,188.770745 129.141717,188.770745 C135.784464,188.770745 141.043227,186.914224 144.918164,183.201125 C148.7931,179.488026 150.730539,174.826095 150.730539,169.21519 C150.453758,159.643646 145.1258,152.135048 134.746507,146.68917 L110.251497,134.312236 C100.564156,129.526465 93.2987601,123.379316 88.4550898,115.870605 C83.6114196,108.361894 81.1896208,99.739383 81.1896208,90.0028129 C81.1896208,82.5766155 82.4005202,75.8106259 84.8223553,69.7046414 C87.2441904,63.5986568 90.703903,58.3591405 95.2015968,53.9859353 C99.6992906,49.6127301 105.027248,46.1884793 111.185629,43.7130802 C117.34401,41.237681 124.159643,40 131.632735,40 C146.855698,40 161.801657,44.5381637 176.471058,53.6146273 C176.055886,63.6812505 172.803756,72.0974814 166.714571,78.8635724 C152.737122,70.9422951 140.558934,66.9817159 130.179641,66.9817159 C123.536893,66.9817159 118.451115,68.7969814 114.922156,72.4275668 C111.393196,76.0581522 109.628743,80.5138039 109.628743,85.7946554 C109.628743,93.3858795 114.541534,99.6567966 124.367265,104.607595 L148.862275,116.984529 C158.826397,121.935327 166.506959,128.45378 171.904192,136.540084 C177.301424,144.626388 180,153.950252 180,164.511955 C180,171.938152 178.892892,178.82791 176.678643,185.181435 C174.464393,191.534959 171.108472,196.980756 166.610778,201.518987 C162.113085,206.057219 156.50835,209.605238 149.796407,212.16315 C143.084464,214.721063 135.161722,216 126.027944,216 C108.31395,216 91.6381354,209.894107 76,197.682138 Z" id="Path"></path>
        </g>
    </g>
</svg>