<?xml version="1.0" encoding="UTF-8"?>
<svg width="22px" height="22px" viewBox="0 0 22 22" version="1.1" xmlns="http://www.w3.org/2000/svg" xmlns:xlink="http://www.w3.org/1999/xlink">
    <!-- Generator: Sketch 47 (45396) - http://www.bohemiancoding.com/sketch -->
    <title>spotify</title>
    <desc>Created with Sketch.</desc>
    <defs></defs>
    <g id="Page-1" stroke="none" stroke-width="1" fill="none" fill-rule="evenodd">
        <g id="Logo-alt" transform="translate(-752.000000, -2335.000000)" fill-rule="nonzero" fill="#9B9B9B">
            <g id="Footer" transform="translate(250.000000, 2334.000000)">
                <g id="Logo-Copy" transform="translate(406.000000, 1.000000)">
                    <g id="spotify" transform="translate(96.000000, 0.000000)">
                        <path d="M11,0 C4.934875,0 0,4.934875 0,11 C0,17.065125 4.934875,22 11,22 C17.065125,22 22,17.065125 22,11 C22,4.934875 17.065125,0 11,0 Z M16.04625,15.8785 C15.9115,16.069625 15.69975,16.171375 15.483875,16.171375 C15.346375,16.171375 15.208875,16.1315 15.08925,16.04625 C12.511125,14.234 8.2225,14.133625 5.32675,14.80875 C4.959625,14.895375 4.587,14.664375 4.50175,14.2945 C4.4165,13.924625 4.64475,13.55475 5.016,13.468125 C8.199125,12.731125 12.956625,12.865875 15.8785,14.9215 C16.18925,15.140125 16.2635,15.56775 16.04625,15.8785 Z M17.38825,13.195875 C17.2535,13.382875 17.043125,13.481875 16.83,13.481875 C16.68975,13.481875 16.550875,13.440625 16.4285,13.352625 C13.437875,11.20625 9.763875,10.67275 4.860625,11.67375 C4.49075,11.746625 4.125,11.510125 4.049375,11.1375 C3.972375,10.76625 4.213,10.401875 4.58425,10.32625 C9.887625,9.244125 13.905375,9.849125 17.230125,12.23475 C17.538125,12.4575 17.609625,12.8865 17.38825,13.195875 Z M18.744,9.593375 C18.610625,9.79 18.393375,9.8945 18.17475,9.8945 C18.041375,9.8945 17.906625,9.856 17.788375,9.77625 C13.9975,7.203625 8.234875,7.19125 4.5045,8.51125 C4.147,8.635 3.75375,8.449375 3.62725,8.0905 C3.50075,7.733 3.68775,7.33975 4.046625,7.21325 C8.10425,5.779125 14.392125,5.809375 18.5625,8.63775 C18.876,8.850875 18.95575,9.2785 18.744,9.593375 Z" id="Shape"></path>
                    </g>
                </g>
            </g>
        </g>
    </g>
</svg>