<?xml version="1.0" encoding="UTF-8"?>
<svg width="32px" height="22px" viewBox="0 0 32 22" version="1.1" xmlns="http://www.w3.org/2000/svg" xmlns:xlink="http://www.w3.org/1999/xlink">
    <!-- Generator: Sketch 47 (45396) - http://www.bohemiancoding.com/sketch -->
    <title>tidal</title>
    <desc>Created with Sketch.</desc>
    <defs></defs>
    <g id="Page-1" stroke="none" stroke-width="1" fill="none" fill-rule="evenodd">
        <g id="Logo-alt" transform="translate(-701.000000, -2386.000000)" fill-rule="nonzero" fill="#9B9B9B">
            <g id="Footer" transform="translate(250.000000, 2334.000000)">
                <g id="Logo-Copy" transform="translate(406.000000, 1.000000)">
                    <g id="tidal" transform="translate(45.000000, 51.000000)">
                        <path d="M5.29609516,0 L5.36229635,0 C5.86724593,0.597362296 6.43806568,1.12645462 6.97595035,1.69821567 L10.6335661,5.47013189 L10.6335661,5.53840186 C8.86284975,7.35608999 7.10007758,9.19084562 5.32919576,11.0085337 C3.55003879,9.18231187 1.77915697,7.34755625 0,5.52133437 C0.0911921386,5.34212568 0.264804758,5.22265322 0.397207137,5.07757952 C2.02741143,3.37936385 3.68244117,1.70674942 5.29609516,0 Z M15.971037,0 L16.0372382,0 C16.0870546,0.0768037238 16.13654,0.145073701 16.2027411,0.213343677 C17.9156969,1.96276183 19.6039928,3.73778123 21.3333333,5.47866563 C21.2919576,5.5810706 21.200931,5.64934057 21.1264546,5.7261443 C19.4136643,7.4840962 17.7088182,9.25058185 15.9958624,11.0085337 C14.2084303,9.19084562 12.4540988,7.3390225 10.6583915,5.52986811 C12.3961727,3.6609775 14.2249806,1.86035687 15.971037,0 Z M26.6459788,0 L26.71218,0 C27.0431859,0.40961986 27.4321179,0.759503491 27.7879493,1.14352211 C29.1285234,2.52598914 30.4609878,3.89992242 31.8013964,5.28238945 C31.8677631,5.35919317 31.9753401,5.42746315 32,5.53840186 C30.2042927,7.3390225 28.4665115,9.20791311 26.6625291,11.0085337 L21.5733126,5.76027929 C21.4905612,5.66640807 21.3829842,5.59813809 21.3416085,5.47866563 C22.2435997,4.57408844 23.1207655,3.64391001 24.0144815,2.73079907 C24.8916473,1.81768813 25.7853633,0.930178433 26.6459788,0 Z M10.7328679,16.4274631 C12.4789242,14.6268425 14.2332558,12.8262219 15.9793121,11.0170675 L16.053623,11.0512025 C17.8079545,12.8688906 19.562286,14.6865787 21.3331678,16.4871994 C21.2754073,16.6237393 21.1512801,16.7005431 21.0600879,16.8114818 C19.7858805,18.1171451 18.5113421,19.4398759 17.2369692,20.7455392 C16.8232118,21.155159 16.4260047,21.6159814 16.0041376,22 C15.4000517,21.4367727 14.8456168,20.8052754 14.2579157,20.2249806 C13.0664598,18.996121 11.8831135,17.7672614 10.683217,16.5469356 C10.6997673,16.5128006 10.7163176,16.4615981 10.7328679,16.4274631 Z" id="Shape"></path>
                    </g>
                </g>
            </g>
        </g>
    </g>
</svg>