<?xml version="1.0" encoding="UTF-8"?>
<svg width="22px" height="27px" viewBox="0 0 22 27" version="1.1" xmlns="http://www.w3.org/2000/svg" xmlns:xlink="http://www.w3.org/1999/xlink">
    <!-- Generator: Sketch 47 (45396) - http://www.bohemiancoding.com/sketch -->
    <title>apple</title>
    <desc>Created with Sketch.</desc>
    <defs></defs>
    <g id="Page-1" stroke="none" stroke-width="1" fill="none" fill-rule="evenodd">
        <g id="Logo-alt" transform="translate(-656.000000, -2381.000000)" fill-rule="nonzero" fill="#9B9B9B">
            <g id="Footer" transform="translate(250.000000, 2334.000000)">
                <g id="Logo-Copy" transform="translate(406.000000, 1.000000)">
                    <g id="apple" transform="translate(0.000000, 46.000000)">
                        <path d="M18.3744522,14.346162 C18.340363,10.9268157 21.1649182,9.28693637 21.2910908,9.20546184 C19.7040396,6.88462423 17.2317754,6.56668899 16.3507839,6.52993317 C14.2468,6.3170447 12.2454005,7.76781869 11.177604,7.76781869 C10.1124988,7.76781869 8.4647624,6.56141556 6.71982407,6.59310889 C4.42655495,6.62717526 2.31201708,7.92565252 1.1311877,9.97812516 C-1.25147343,14.1098595 0.521010727,20.2307325 2.84330323,23.5816296 C3.97806458,25.2218781 5.33118729,27.0640989 7.10778749,26.9982865 C8.81863654,26.9300483 9.46559405,25.8919731 11.5340111,25.8919731 C13.6023754,25.8919731 14.1838457,26.9982865 15.9943241,26.9643256 C17.8353562,26.9301538 19.0017266,25.2927003 20.128678,23.6474421 C21.431775,21.7445767 21.9683381,19.9023031 22,19.8077505 C21.9591034,19.7890825 18.4100191,18.4303826 18.3744522,14.346162 Z M14.97249,4.31161108 C15.9154332,3.16838367 16.5518896,1.5822934 16.378277,0 C15.0200356,0.0552655718 13.3736712,0.904129989 12.3991717,2.04477342 C11.5247764,3.05663963 10.7593508,4.67162831 10.9644669,6.22228112 C12.4807538,6.34051147 14.0285442,5.45225452 14.97249,4.31161108 Z" id="Shape"></path>
                    </g>
                </g>
            </g>
        </g>
    </g>
</svg>
