<?xml version="1.0" encoding="UTF-8"?>
<svg width="32px" height="23px" viewBox="0 0 32 23" version="1.1" xmlns="http://www.w3.org/2000/svg" xmlns:xlink="http://www.w3.org/1999/xlink">
    <!-- Generator: Sketch 47 (45396) - http://www.bohemiancoding.com/sketch -->
    <title>youtube</title>
    <desc>Created with Sketch.</desc>
    <defs></defs>
    <g id="Page-1" stroke="none" stroke-width="1" fill="none" fill-rule="evenodd">
        <g id="Logo-alt" transform="translate(-656.000000, -2335.000000)" fill-rule="nonzero" fill="#9B9B9B">
            <g id="Footer" transform="translate(250.000000, 2334.000000)">
                <g id="Logo-Copy" transform="translate(406.000000, 1.000000)">
                    <g id="youtube">
                        <path d="M30.64,2.13482517 C29.772,0.580027972 28.83,0.294041958 26.912,0.185286713 C24.996,0.0543776224 20.178,0 16.004,0 C11.822,0 7.002,0.0543776224 5.088,0.183272727 C3.174,0.294041958 2.23,0.578013986 1.354,2.13482517 C0.46,3.68760839 0,6.36218182 0,11.0708811 C0,11.0749091 0,11.0769231 0,11.0769231 C0,11.080951 0,11.082965 0,11.082965 L0,11.086993 C0,15.7755524 0.46,18.4702657 1.354,20.0069371 C2.23,21.5617343 3.172,21.8436923 5.086,21.9746014 C7.002,22.0873846 11.822,22.1538462 16.004,22.1538462 C20.178,22.1538462 24.996,22.0873846 26.914,21.9766154 C28.832,21.8457063 29.774,21.5637483 30.642,20.008951 C31.544,18.4722797 32,15.7775664 32,11.089007 C32,11.089007 32,11.082965 32,11.0789371 C32,11.0789371 32,11.0749091 32,11.0728951 C32,6.36218182 31.544,3.68760839 30.64,2.13482517 Z M12,17.1188811 L12,5.03496503 L22,11.0769231 L12,17.1188811 Z" id="Shape"></path>
                    </g>
                </g>
            </g>
        </g>
    </g>
</svg>