<?xml version="1.0" encoding="UTF-8"?>
<svg width="32px" height="19px" viewBox="0 0 32 19" version="1.1" xmlns="http://www.w3.org/2000/svg" xmlns:xlink="http://www.w3.org/1999/xlink">
    <!-- Generator: Sketch 47 (45396) - http://www.bohemiancoding.com/sketch -->
    <title>soundcloud</title>
    <desc>Created with Sketch.</desc>
    <defs></defs>
    <g id="Page-1" stroke="none" stroke-width="1" fill="none" fill-rule="evenodd">
        <g id="Logo-alt" transform="translate(-704.000000, -2336.000000)" fill-rule="nonzero" fill="#9B9B9B">
            <g id="Footer" transform="translate(250.000000, 2334.000000)">
                <g id="Logo-Copy" transform="translate(406.000000, 1.000000)">
                    <g id="soundcloud" transform="translate(48.000000, 1.000000)">
                        <path d="M27,8.07532957 C26.644,8.07532957 26.294,8.11368738 25.958,8.18636535 C25.508,3.59755932 21.662,0 17,0 C16.448,0 16,0.452218456 16,1.0094162 L16,17.1600753 C16,17.7172731 16.448,18.1694915 17,18.1694915 L27,18.1694915 C29.758,18.1694915 32,15.9063804 32,13.1224105 C32,10.3404595 29.758,8.07532957 27,8.07532957 Z" id="Shape"></path>
                        <path d="M13.1525424,1.89830508 C12.6286102,1.89830508 12.2033898,2.35389831 12.2033898,2.91525424 L12.2033898,17.1525424 C12.2033898,17.7138983 12.6286102,18.1694915 13.1525424,18.1694915 C13.6764746,18.1694915 14.1016949,17.7138983 14.1016949,17.1525424 L14.1016949,2.91525424 C14.1016949,2.35389831 13.6764746,1.89830508 13.1525424,1.89830508 Z" id="Shape"></path>
                        <path d="M9.08474576,5.96610169 C8.56081356,5.96610169 8.13559322,6.42169492 8.13559322,6.98305085 L8.13559322,17.1525424 C8.13559322,17.7138983 8.56081356,18.1694915 9.08474576,18.1694915 C9.60867797,18.1694915 10.0338983,17.7138983 10.0338983,17.1525424 L10.0338983,6.98305085 C10.0338983,6.42169492 9.60867797,5.96610169 9.08474576,5.96610169 Z" id="Shape"></path>
                        <path d="M5.01694915,5.96610169 C4.49301695,5.96610169 4.06779661,6.42169492 4.06779661,6.98305085 L4.06779661,17.1525424 C4.06779661,17.7138983 4.49301695,18.1694915 5.01694915,18.1694915 C5.54088136,18.1694915 5.96610169,17.7138983 5.96610169,17.1525424 L5.96610169,6.98305085 C5.96610169,6.42169492 5.54088136,5.96610169 5.01694915,5.96610169 Z" id="Shape"></path>
                        <path d="M0.949152542,9.22033898 C0.425220339,9.22033898 0,9.6759322 0,10.2372881 L0,16.3389831 C0,16.900339 0.425220339,17.3559322 0.949152542,17.3559322 C1.47308475,17.3559322 1.89830508,16.900339 1.89830508,16.3389831 L1.89830508,10.2372881 C1.89830508,9.6759322 1.47308475,9.22033898 0.949152542,9.22033898 Z" id="Shape"></path>
                    </g>
                </g>
            </g>
        </g>
    </g>
</svg>