<svg xmlns="http://www.w3.org/2000/svg" width="144" height="20" viewBox="0 0 144 20">
  <path fill="#9B9B9B" fill-rule="evenodd" d="M1,17.9184248 C1.04715971,17.3933401 1.19256664,16.8635751 1.43622514,16.3291139 C1.67988365,15.7946527 1.95890775,15.3680278 2.27330582,15.0492264 C3.89245589,16.286926 5.48014233,16.9057665 7.03641278,16.9057665 C7.79096815,16.9057665 8.38831553,16.6947982 8.82847283,16.2728551 C9.26863013,15.8509121 9.48870547,15.3211471 9.48870547,14.6835443 C9.45726567,13.5958689 8.85205846,12.7426191 7.67306569,12.1237693 L4.89065668,10.7172996 C3.79026343,10.1734619 2.96498087,9.47492222 2.41478425,8.62165963 C1.86458762,7.76839705 1.58949344,6.78856624 1.58949344,5.68213783 C1.58949344,4.83825176 1.72704053,4.06938931 2.00213884,3.37552743 C2.27723715,2.68166554 2.67022885,2.08626596 3.18112571,1.58931083 C3.69202258,1.0923557 4.29722979,0.703236287 4.99676549,0.421940928 C5.6963012,0.14064557 6.47049484,0 7.31936963,0 C9.04855902,0 10.7462831,0.515700422 12.4125929,1.54711674 C12.3654332,2.6910512 11.996021,3.64744107 11.3043453,4.41631505 C9.716635,3.5161699 8.33330424,3.06610408 7.15431147,3.06610408 C6.3997561,3.06610408 5.82205831,3.27238425 5.42120077,3.68495077 C5.02034323,4.0975173 4.81991746,4.60384135 4.81991746,5.20393812 C4.81991746,6.06657722 5.37796567,6.77918143 6.49407882,7.34177215 L9.27648784,8.74824191 C10.4083209,9.31083263 11.2807625,10.051566 11.8938387,10.9704641 C12.5069149,11.8893623 12.8134485,12.9488923 12.8134485,14.1490858 C12.8134485,14.9929719 12.6876911,15.7758989 12.4361727,16.4978903 C12.1846542,17.2198817 11.8034523,17.8387222 11.2925554,18.3544304 C10.7816585,18.8701385 10.145012,19.2733225 9.38259666,19.5639944 C8.62018133,19.8546662 7.72023035,20 6.68271672,20 C4.67056907,20 2.7763491,19.3061485 1,17.9184248 Z M21.0427768,5.96343179 L22.9055761,0.393811533 C23.2671339,0.300046414 23.7230042,0.253164557 24.2732008,0.253164557 C24.8233975,0.253164557 25.318567,0.337551899 25.7587243,0.506329114 L25.876623,0.731364276 L21.3493134,13.6146273 L21.3493134,19.6061885 C20.9405959,19.6999536 20.413987,19.7468354 19.769471,19.7468354 C19.1249549,19.7468354 18.5983461,19.6999536 18.1896286,19.6061885 L18.1896286,13.5021097 L13.662319,0.843881857 C14.3225549,0.393809283 14.9199023,0.168776371 15.454379,0.168776371 C15.9888558,0.168776371 16.3818475,0.290669198 16.6333659,0.534458509 C16.8848844,0.77824782 17.1049597,1.18143179 17.2935986,1.7440225 L18.779122,6.07594937 C19.1878395,7.35115499 19.5258124,8.60758875 19.7930507,9.84528833 L19.9345292,9.84528833 C20.1860476,8.75761294 20.5554598,7.4636737 21.0427768,5.96343179 Z M40.0244654,0.225035162 L40.1895236,0.421940928 L40.1895236,19.5499297 C39.7022066,19.6812008 39.0891396,19.7468354 38.3503041,19.7468354 C37.6114686,19.7468354 36.9669622,19.6999536 36.4167656,19.6061885 L32.0780939,8.72011252 C31.4492978,7.06984641 30.9777078,5.75715443 30.6633097,4.78199719 L30.5689907,4.81012658 C30.7419097,7.45430295 30.8283678,10.0046759 30.8283678,12.4613221 L30.8283678,19.6061885 C30.3882105,19.6999536 29.8891111,19.7468354 29.3310545,19.7468354 C28.7729979,19.7468354 28.2896182,19.6999536 27.8809007,19.6061885 L27.8809007,0.450070323 C28.3367779,0.318799156 28.9341252,0.253164557 29.6729607,0.253164557 C30.4117962,0.253164557 31.0563026,0.300046414 31.6064992,0.393811533 L35.8980114,11.2798875 L37.4306943,15.443038 L37.5014335,15.4149086 C37.3442345,12.6957201 37.2656362,10.1265944 37.2656362,7.70745429 L37.2656362,2.55977496 C37.2656362,1.71588889 37.3992533,1.11580113 37.6664917,0.759493671 C37.9337301,0.403186217 38.3817406,0.225035162 39.0105367,0.225035162 L40.0244654,0.225035162 Z M42.9148758,0.531054589 C43.0172434,0.512301659 46.6208775,0.502925194 53.725778,0.502925194 C53.8515372,0.934244744 53.9144159,1.44994517 53.9144159,2.05004193 C53.9144159,2.6501387 53.8515372,3.16583912 53.725778,3.59715867 C46.627015,3.59715867 43.023381,3.59715867 42.9148758,3.59715867 C42.7521181,3.59715867 42.7427911,2.13156931 42.7427911,2.05004193 C42.7427911,1.96851455 42.7613244,0.559183985 42.9148758,0.531054589 Z M97.733722,0.279591992 C97.8360896,0.260839062 101.439724,0.251462597 108.544624,0.251462597 C108.670383,0.682782147 108.733262,1.19848257 108.733262,1.79857933 C108.733262,2.3986761 108.670383,2.91437652 108.544624,3.34569607 C101.445861,3.34569607 97.8422271,3.34569607 97.733722,3.34569607 C97.5709643,3.34569607 97.5616373,1.88010671 97.5616373,1.79857933 C97.5616373,1.71705195 97.5801706,0.307721388 97.733722,0.279591992 Z M42.9148758,16.6246608 C43.0172434,16.6059079 46.6208775,16.5965314 53.725778,16.5965314 C53.8515372,17.027851 53.9144159,17.5435514 53.9144159,18.1436481 C53.9144159,18.7437449 53.8515372,19.2594453 53.725778,19.6907649 C46.627015,19.6907649 43.023381,19.6907649 42.9148758,19.6907649 C42.7521181,19.6907649 42.7427911,18.2251755 42.7427911,18.1436481 C42.7427911,18.0621208 42.7613244,16.6527902 42.9148758,16.6246608 Z M97.733722,16.3731982 C97.8360896,16.3544453 101.439724,16.3450688 108.544624,16.3450688 C108.670383,16.7763884 108.733262,17.2920888 108.733262,17.8921855 C108.733262,18.4922823 108.670383,19.0079827 108.544624,19.4393023 C101.445861,19.4393023 97.8422271,19.4393023 97.733722,19.4393023 C97.5709643,19.4393023 97.5616373,17.9737129 97.5616373,17.8921855 C97.5616373,17.8106582 97.5801706,16.4013276 97.733722,16.3731982 Z M42.9148758,8.5778577 C43.0172434,8.55910477 45.686862,8.5497283 50.9237314,8.5497283 C51.0494906,8.98104785 51.1123693,9.49674827 51.1123693,10.096845 C51.1123693,10.6969418 51.0494906,11.2126422 50.9237314,11.6439618 C45.6929995,11.6439618 43.023381,11.6439618 42.9148758,11.6439618 C42.7521181,11.6439618 42.7427911,10.1783724 42.7427911,10.096845 C42.7427911,10.0153177 42.7613244,8.60598709 42.9148758,8.5778577 Z M97.733722,8.3263951 C97.8360896,8.30764217 100.505708,8.29826571 105.742578,8.29826571 C105.868337,8.72958525 105.931215,9.24528568 105.931215,9.84538244 C105.931215,10.4454792 105.868337,10.9611796 105.742578,11.3924992 C100.511846,11.3924992 97.8422271,11.3924992 97.733722,11.3924992 C97.5709643,11.3924992 97.5616373,9.92690982 97.5616373,9.84538244 C97.5616373,9.76385506 97.5801706,8.3545245 97.733722,8.3263951 Z M56.1058464,17.9184248 C56.1530061,17.3933401 56.298413,16.8635751 56.5420715,16.3291139 C56.78573,15.7946527 57.0647541,15.3680278 57.3791522,15.0492264 C58.9983023,16.286926 60.5859887,16.9057665 62.1422592,16.9057665 C62.8968145,16.9057665 63.4941619,16.6947982 63.9343192,16.2728551 C64.3744765,15.8509121 64.5945518,15.3211471 64.5945518,14.6835443 C64.563112,13.5958689 63.9579048,12.7426191 62.7789121,12.1237693 L59.996503,10.7172996 C58.8961098,10.1734619 58.0708272,9.47492222 57.5206306,8.62165963 C56.970434,7.76839705 56.6953398,6.78856624 56.6953398,5.68213783 C56.6953398,4.83825176 56.8328869,4.06938931 57.1079852,3.37552743 C57.3830835,2.68166554 57.7760752,2.08626596 58.2869721,1.58931083 C58.797869,1.0923557 59.4030762,0.703236287 60.1026119,0.421940928 C60.8021476,0.14064557 61.5763412,0 62.425216,0 C64.1544054,0 65.8521295,0.515700422 67.5184393,1.54711674 C67.4712796,2.6910512 67.1018674,3.64744107 66.4101916,4.41631505 C64.8224814,3.5161699 63.4391506,3.06610408 62.2601578,3.06610408 C61.5056025,3.06610408 60.9279047,3.27238425 60.5270471,3.68495077 C60.1261896,4.0975173 59.9257638,4.60384135 59.9257638,5.20393812 C59.9257638,6.06657722 60.483812,6.77918143 61.5999252,7.34177215 L64.3823342,8.74824191 C65.5141673,9.31083263 66.3866088,10.051566 66.9996851,10.9704641 C67.6127613,11.8893623 67.9192948,12.9488923 67.9192948,14.1490858 C67.9192948,14.9929719 67.7935375,15.7758989 67.542019,16.4978903 C67.2905006,17.2198817 66.9092986,17.8387222 66.3984018,18.3544304 C65.8875049,18.8701385 65.2508584,19.2733225 64.488443,19.5639944 C63.7260277,19.8546662 62.8260767,20 61.7885631,20 C59.7764154,20 57.8821955,19.3061485 56.1058464,17.9184248 Z M76.1957827,3.5161744 L76.2193624,5.59774965 L76.2193624,19.6061885 C75.7634852,19.6999536 75.2329464,19.7468354 74.6277301,19.7468354 C74.0225138,19.7468354 73.4919751,19.6999536 73.0360978,19.6061885 L73.0360978,5.59774965 L73.0596776,3.5161744 L71.6213136,3.5443038 L69.0039627,3.5443038 C68.9253632,3.0754782 68.8860641,2.55040141 68.8860641,1.96905767 C68.8860641,1.38771392 68.9253632,0.862637131 69.0039627,0.393811533 L80.2750772,0.393811533 C80.3851166,0.862637131 80.4401354,1.37364937 80.4401354,1.92686357 C80.4401354,2.48007778 80.3065182,2.88794993 80.0392799,3.15049226 C79.7720415,3.4130346 79.3397506,3.5443038 78.7423943,3.5443038 L77.6341466,3.5443038 L76.1957827,3.5161744 Z M91.4518728,8.12939522 L91.428293,6.04781997 L91.428293,0.393811533 C91.8370105,0.300046414 92.3596895,0.253164557 92.9963456,0.253164557 C93.6330017,0.253164557 94.1714003,0.300046414 94.6115576,0.393811533 L94.6115576,19.6061885 C94.1556804,19.6999536 93.6172818,19.7468354 92.9963456,19.7468354 C92.3754094,19.7468354 91.8527304,19.6999536 91.428293,19.6061885 L91.428293,13.3333333 L91.4518728,11.2517581 L90.2021467,11.2798875 L86.8774037,11.2798875 L85.6040979,11.2517581 L85.6276776,13.3333333 L85.6276776,19.6061885 C85.2189601,19.6999536 84.6923513,19.7468354 84.0478352,19.7468354 C83.4033192,19.7468354 82.8767103,19.6999536 82.4679928,19.6061885 L82.4679928,0.393811533 C82.8767103,0.300046414 83.4033192,0.253164557 84.0478352,0.253164557 C84.6923513,0.253164557 85.2189601,0.300046414 85.6276776,0.393811533 L85.6276776,6.04781997 L85.6040979,8.12939522 L86.8774037,8.10126582 L90.2021467,8.10126582 L91.4518728,8.12939522 Z M110.52788,17.9184248 C110.57504,17.3933401 110.720447,16.8635751 110.964106,16.3291139 C111.207764,15.7946527 111.486788,15.3680278 111.801186,15.0492264 C113.420336,16.286926 115.008023,16.9057665 116.564293,16.9057665 C117.318849,16.9057665 117.916196,16.6947982 118.356353,16.2728551 C118.79651,15.8509121 119.016586,15.3211471 119.016586,14.6835443 C118.985146,13.5958689 118.379939,12.7426191 117.200946,12.1237693 L114.418537,10.7172996 C113.318144,10.1734619 112.492861,9.47492222 111.942665,8.62165963 C111.392468,7.76839705 111.117374,6.78856624 111.117374,5.68213783 C111.117374,4.83825176 111.254921,4.06938931 111.530019,3.37552743 C111.805118,2.68166554 112.198109,2.08626596 112.709006,1.58931083 C113.219903,1.0923557 113.82511,0.703236287 114.524646,0.421940928 C115.224182,0.14064557 115.998375,0 116.84725,0 C118.576439,0 120.274163,0.515700422 121.940473,1.54711674 C121.893314,2.6910512 121.523901,3.64744107 120.832226,4.41631505 C119.244515,3.5161699 117.861185,3.06610408 116.682192,3.06610408 C115.927636,3.06610408 115.349939,3.27238425 114.949081,3.68495077 C114.548224,4.0975173 114.347798,4.60384135 114.347798,5.20393812 C114.347798,6.06657722 114.905846,6.77918143 116.021959,7.34177215 L118.804368,8.74824191 C119.936201,9.31083263 120.808643,10.051566 121.421719,10.9704641 C122.034795,11.8893623 122.341329,12.9488923 122.341329,14.1490858 C122.341329,14.9929719 122.215571,15.7758989 121.964053,16.4978903 C121.712535,17.2198817 121.331333,17.8387222 120.820436,18.3544304 C120.309539,18.8701385 119.672892,19.2733225 118.910477,19.5639944 C118.148062,19.8546662 117.248111,20 116.210597,20 C114.198449,20 112.304229,19.3061485 110.52788,17.9184248 Z M125.147318,19.6061885 L125.147318,0.393811533 C125.540315,0.300046414 126.055134,0.253164557 126.69179,0.253164557 C127.328446,0.253164557 127.866845,0.300046414 128.307002,0.393811533 L128.307002,19.6061885 C127.866845,19.6999536 127.328446,19.7468354 126.69179,19.7468354 C126.055134,19.7468354 125.540315,19.6999536 125.147318,19.6061885 Z M140.379828,15.2461322 L138.193287,5.15012207 L137.204178,5.15012207 L134.76785,15.2461322 L133.659603,19.6343179 C133.329485,19.728083 132.861825,19.7749648 132.256608,19.7749648 C131.651392,19.7749648 131.160152,19.6905775 130.782875,19.5218003 L130.664976,19.3248945 L135.923258,0.393811533 C136.504894,0.300046414 137.133681,0.253164557 137.809637,0.253164557 C138.485592,0.253164557 139.07508,0.309422785 139.578117,0.421940928 L144.742079,19.3530239 C144.286202,19.6718253 143.739944,19.8312236 143.103288,19.8312236 C142.466632,19.8312236 142.010761,19.6905781 141.735663,19.4092827 C141.460565,19.1279873 141.228699,18.5935342 141.040061,17.8059072 L140.379828,15.2461322 Z" transform="translate(-1)"/>
</svg>
