<?xml version="1.0" encoding="UTF-8"?>
<svg width="144px" height="20px" viewBox="0 0 144 20" version="1.1" xmlns="http://www.w3.org/2000/svg" xmlns:xlink="http://www.w3.org/1999/xlink">
    <!-- Generator: Sketch 47 (45396) - http://www.bohemiancoding.com/sketch -->
    <title>SYNESTHESIA</title>
    <desc>Created with Sketch.</desc>
    <defs></defs>
    <g id="Page-1" stroke="none" stroke-width="1" fill="none" fill-rule="evenodd">
        <g id="Logo-alt" transform="translate(-250.000000, -31.000000)" fill="#1E1E1E">
            <path d="M250,48.9184248 C250.04716,48.3933401 250.192567,47.8635751 250.436225,47.3291139 C250.679884,46.7946527 250.958908,46.3680278 251.273306,46.0492264 C252.892456,47.286926 254.480142,47.9057665 256.036413,47.9057665 C256.790968,47.9057665 257.388316,47.6947982 257.828473,47.2728551 C258.26863,46.8509121 258.488705,46.3211471 258.488705,45.6835443 C258.457266,44.5958689 257.852058,43.7426191 256.673066,43.1237693 L253.890657,41.7172996 C252.790263,41.1734619 251.964981,40.4749222 251.414784,39.6216596 C250.864588,38.768397 250.589493,37.7885662 250.589493,36.6821378 C250.589493,35.8382518 250.727041,35.0693893 251.002139,34.3755274 C251.277237,33.6816655 251.670229,33.086266 252.181126,32.5893108 C252.692023,32.0923557 253.29723,31.7032363 253.996765,31.4219409 C254.696301,31.1406456 255.470495,31 256.31937,31 C258.048559,31 259.746283,31.5157004 261.412593,32.5471167 C261.365433,33.6910512 260.996021,34.6474411 260.304345,35.416315 C258.716635,34.5161699 257.333304,34.0661041 256.154311,34.0661041 C255.399756,34.0661041 254.822058,34.2723842 254.421201,34.6849508 C254.020343,35.0975173 253.819917,35.6038414 253.819917,36.2039381 C253.819917,37.0665772 254.377966,37.7791814 255.494079,38.3417722 L258.276488,39.7482419 C259.408321,40.3108326 260.280762,41.051566 260.893839,41.9704641 C261.506915,42.8893623 261.813448,43.9488923 261.813448,45.1490858 C261.813448,45.9929719 261.687691,46.7758989 261.436173,47.4978903 C261.184654,48.2198817 260.803452,48.8387222 260.292555,49.3544304 C259.781659,49.8701385 259.145012,50.2733225 258.382597,50.5639944 C257.620181,50.8546662 256.72023,51 255.682717,51 C253.670569,51 251.776349,50.3061485 250,48.9184248 Z M270.042777,36.9634318 L271.905576,31.3938115 C272.267134,31.3000464 272.723004,31.2531646 273.273201,31.2531646 C273.823397,31.2531646 274.318567,31.3375519 274.758724,31.5063291 L274.876623,31.7313643 L270.349313,44.6146273 L270.349313,50.6061885 C269.940596,50.6999536 269.413987,50.7468354 268.769471,50.7468354 C268.124955,50.7468354 267.598346,50.6999536 267.189629,50.6061885 L267.189629,44.5021097 L262.662319,31.8438819 C263.322555,31.3938093 263.919902,31.1687764 264.454379,31.1687764 C264.988856,31.1687764 265.381847,31.2906692 265.633366,31.5344585 C265.884884,31.7782478 266.10496,32.1814318 266.293599,32.7440225 L267.779122,37.0759494 C268.18784,38.351155 268.525812,39.6075887 268.793051,40.8452883 L268.934529,40.8452883 C269.186048,39.7576129 269.55546,38.4636737 270.042777,36.9634318 Z M289.024465,31.2250352 L289.189524,31.4219409 L289.189524,50.5499297 C288.702207,50.6812008 288.08914,50.7468354 287.350304,50.7468354 C286.611469,50.7468354 285.966962,50.6999536 285.416766,50.6061885 L281.078094,39.7201125 C280.449298,38.0698464 279.977708,36.7571544 279.66331,35.7819972 L279.568991,35.8101266 C279.74191,38.454303 279.828368,41.0046759 279.828368,43.4613221 L279.828368,50.6061885 C279.388211,50.6999536 278.889111,50.7468354 278.331055,50.7468354 C277.772998,50.7468354 277.289618,50.6999536 276.880901,50.6061885 L276.880901,31.4500703 C277.336778,31.3187992 277.934125,31.2531646 278.672961,31.2531646 C279.411796,31.2531646 280.056303,31.3000464 280.606499,31.3938115 L284.898011,42.2798875 L286.430694,46.443038 L286.501434,46.4149086 C286.344235,43.6957201 286.265636,41.1265944 286.265636,38.7074543 L286.265636,33.559775 C286.265636,32.7158889 286.399253,32.1158011 286.666492,31.7594937 C286.93373,31.4031862 287.381741,31.2250352 288.010537,31.2250352 L289.024465,31.2250352 Z M291.914876,31.5310546 C292.017243,31.5123017 295.620877,31.5029252 302.725778,31.5029252 C302.851537,31.9342447 302.914416,32.4499452 302.914416,33.0500419 C302.914416,33.6501387 302.851537,34.1658391 302.725778,34.5971587 C295.627015,34.5971587 292.023381,34.5971587 291.914876,34.5971587 C291.752118,34.5971587 291.742791,33.1315693 291.742791,33.0500419 C291.742791,32.9685146 291.761324,31.559184 291.914876,31.5310546 Z M346.733722,31.279592 C346.83609,31.2608391 350.439724,31.2514626 357.544624,31.2514626 C357.670383,31.6827821 357.733262,32.1984826 357.733262,32.7985793 C357.733262,33.3986761 357.670383,33.9143765 357.544624,34.3456961 C350.445861,34.3456961 346.842227,34.3456961 346.733722,34.3456961 C346.570964,34.3456961 346.561637,32.8801067 346.561637,32.7985793 C346.561637,32.717052 346.580171,31.3077214 346.733722,31.279592 Z M291.914876,47.6246608 C292.017243,47.6059079 295.620877,47.5965314 302.725778,47.5965314 C302.851537,48.027851 302.914416,48.5435514 302.914416,49.1436481 C302.914416,49.7437449 302.851537,50.2594453 302.725778,50.6907649 C295.627015,50.6907649 292.023381,50.6907649 291.914876,50.6907649 C291.752118,50.6907649 291.742791,49.2251755 291.742791,49.1436481 C291.742791,49.0621208 291.761324,47.6527902 291.914876,47.6246608 Z M346.733722,47.3731982 C346.83609,47.3544453 350.439724,47.3450688 357.544624,47.3450688 C357.670383,47.7763884 357.733262,48.2920888 357.733262,48.8921855 C357.733262,49.4922823 357.670383,50.0079827 357.544624,50.4393023 C350.445861,50.4393023 346.842227,50.4393023 346.733722,50.4393023 C346.570964,50.4393023 346.561637,48.9737129 346.561637,48.8921855 C346.561637,48.8106582 346.580171,47.4013276 346.733722,47.3731982 Z M291.914876,39.5778577 C292.017243,39.5591048 294.686862,39.5497283 299.923731,39.5497283 C300.049491,39.9810479 300.112369,40.4967483 300.112369,41.096845 C300.112369,41.6969418 300.049491,42.2126422 299.923731,42.6439618 C294.692999,42.6439618 292.023381,42.6439618 291.914876,42.6439618 C291.752118,42.6439618 291.742791,41.1783724 291.742791,41.096845 C291.742791,41.0153177 291.761324,39.6059871 291.914876,39.5778577 Z M346.733722,39.3263951 C346.83609,39.3076422 349.505708,39.2982657 354.742578,39.2982657 C354.868337,39.7295853 354.931215,40.2452857 354.931215,40.8453824 C354.931215,41.4454792 354.868337,41.9611796 354.742578,42.3924992 C349.511846,42.3924992 346.842227,42.3924992 346.733722,42.3924992 C346.570964,42.3924992 346.561637,40.9269098 346.561637,40.8453824 C346.561637,40.7638551 346.580171,39.3545245 346.733722,39.3263951 Z M305.105846,48.9184248 C305.153006,48.3933401 305.298413,47.8635751 305.542072,47.3291139 C305.78573,46.7946527 306.064754,46.3680278 306.379152,46.0492264 C307.998302,47.286926 309.585989,47.9057665 311.142259,47.9057665 C311.896815,47.9057665 312.494162,47.6947982 312.934319,47.2728551 C313.374476,46.8509121 313.594552,46.3211471 313.594552,45.6835443 C313.563112,44.5958689 312.957905,43.7426191 311.778912,43.1237693 L308.996503,41.7172996 C307.89611,41.1734619 307.070827,40.4749222 306.520631,39.6216596 C305.970434,38.768397 305.69534,37.7885662 305.69534,36.6821378 C305.69534,35.8382518 305.832887,35.0693893 306.107985,34.3755274 C306.383084,33.6816655 306.776075,33.086266 307.286972,32.5893108 C307.797869,32.0923557 308.403076,31.7032363 309.102612,31.4219409 C309.802148,31.1406456 310.576341,31 311.425216,31 C313.154405,31 314.85213,31.5157004 316.518439,32.5471167 C316.47128,33.6910512 316.101867,34.6474411 315.410192,35.416315 C313.822481,34.5161699 312.439151,34.0661041 311.260158,34.0661041 C310.505602,34.0661041 309.927905,34.2723842 309.527047,34.6849508 C309.12619,35.0975173 308.925764,35.6038414 308.925764,36.2039381 C308.925764,37.0665772 309.483812,37.7791814 310.599925,38.3417722 L313.382334,39.7482419 C314.514167,40.3108326 315.386609,41.051566 315.999685,41.9704641 C316.612761,42.8893623 316.919295,43.9488923 316.919295,45.1490858 C316.919295,45.9929719 316.793537,46.7758989 316.542019,47.4978903 C316.290501,48.2198817 315.909299,48.8387222 315.398402,49.3544304 C314.887505,49.8701385 314.250858,50.2733225 313.488443,50.5639944 C312.726028,50.8546662 311.826077,51 310.788563,51 C308.776415,51 306.882195,50.3061485 305.105846,48.9184248 Z M325.195783,34.5161744 L325.219362,36.5977496 L325.219362,50.6061885 C324.763485,50.6999536 324.232946,50.7468354 323.62773,50.7468354 C323.022514,50.7468354 322.491975,50.6999536 322.036098,50.6061885 L322.036098,36.5977496 L322.059678,34.5161744 L320.621314,34.5443038 L318.003963,34.5443038 C317.925363,34.0754782 317.886064,33.5504014 317.886064,32.9690577 C317.886064,32.3877139 317.925363,31.8626371 318.003963,31.3938115 L329.275077,31.3938115 C329.385117,31.8626371 329.440135,32.3736494 329.440135,32.9268636 C329.440135,33.4800778 329.306518,33.8879499 329.03928,34.1504923 C328.772042,34.4130346 328.339751,34.5443038 327.742394,34.5443038 L326.634147,34.5443038 L325.195783,34.5161744 Z M340.451873,39.1293952 L340.428293,37.04782 L340.428293,31.3938115 C340.837011,31.3000464 341.359689,31.2531646 341.996346,31.2531646 C342.633002,31.2531646 343.1714,31.3000464 343.611558,31.3938115 L343.611558,50.6061885 C343.15568,50.6999536 342.617282,50.7468354 341.996346,50.7468354 C341.375409,50.7468354 340.85273,50.6999536 340.428293,50.6061885 L340.428293,44.3333333 L340.451873,42.2517581 L339.202147,42.2798875 L335.877404,42.2798875 L334.604098,42.2517581 L334.627678,44.3333333 L334.627678,50.6061885 C334.21896,50.6999536 333.692351,50.7468354 333.047835,50.7468354 C332.403319,50.7468354 331.87671,50.6999536 331.467993,50.6061885 L331.467993,31.3938115 C331.87671,31.3000464 332.403319,31.2531646 333.047835,31.2531646 C333.692351,31.2531646 334.21896,31.3000464 334.627678,31.3938115 L334.627678,37.04782 L334.604098,39.1293952 L335.877404,39.1012658 L339.202147,39.1012658 L340.451873,39.1293952 Z M359.52788,48.9184248 C359.57504,48.3933401 359.720447,47.8635751 359.964106,47.3291139 C360.207764,46.7946527 360.486788,46.3680278 360.801186,46.0492264 C362.420336,47.286926 364.008023,47.9057665 365.564293,47.9057665 C366.318849,47.9057665 366.916196,47.6947982 367.356353,47.2728551 C367.79651,46.8509121 368.016586,46.3211471 368.016586,45.6835443 C367.985146,44.5958689 367.379939,43.7426191 366.200946,43.1237693 L363.418537,41.7172996 C362.318144,41.1734619 361.492861,40.4749222 360.942665,39.6216596 C360.392468,38.768397 360.117374,37.7885662 360.117374,36.6821378 C360.117374,35.8382518 360.254921,35.0693893 360.530019,34.3755274 C360.805118,33.6816655 361.198109,33.086266 361.709006,32.5893108 C362.219903,32.0923557 362.82511,31.7032363 363.524646,31.4219409 C364.224182,31.1406456 364.998375,31 365.84725,31 C367.576439,31 369.274163,31.5157004 370.940473,32.5471167 C370.893314,33.6910512 370.523901,34.6474411 369.832226,35.416315 C368.244515,34.5161699 366.861185,34.0661041 365.682192,34.0661041 C364.927636,34.0661041 364.349939,34.2723842 363.949081,34.6849508 C363.548224,35.0975173 363.347798,35.6038414 363.347798,36.2039381 C363.347798,37.0665772 363.905846,37.7791814 365.021959,38.3417722 L367.804368,39.7482419 C368.936201,40.3108326 369.808643,41.051566 370.421719,41.9704641 C371.034795,42.8893623 371.341329,43.9488923 371.341329,45.1490858 C371.341329,45.9929719 371.215571,46.7758989 370.964053,47.4978903 C370.712535,48.2198817 370.331333,48.8387222 369.820436,49.3544304 C369.309539,49.8701385 368.672892,50.2733225 367.910477,50.5639944 C367.148062,50.8546662 366.248111,51 365.210597,51 C363.198449,51 361.304229,50.3061485 359.52788,48.9184248 Z M374.147318,50.6061885 L374.147318,31.3938115 C374.540315,31.3000464 375.055134,31.2531646 375.69179,31.2531646 C376.328446,31.2531646 376.866845,31.3000464 377.307002,31.3938115 L377.307002,50.6061885 C376.866845,50.6999536 376.328446,50.7468354 375.69179,50.7468354 C375.055134,50.7468354 374.540315,50.6999536 374.147318,50.6061885 Z M389.379828,46.2461322 L387.193287,36.1501221 L386.204178,36.1501221 L383.76785,46.2461322 L382.659603,50.6343179 C382.329485,50.728083 381.861825,50.7749648 381.256608,50.7749648 C380.651392,50.7749648 380.160152,50.6905775 379.782875,50.5218003 L379.664976,50.3248945 L384.923258,31.3938115 C385.504894,31.3000464 386.133681,31.2531646 386.809637,31.2531646 C387.485592,31.2531646 388.07508,31.3094228 388.578117,31.4219409 L393.742079,50.3530239 C393.286202,50.6718253 392.739944,50.8312236 392.103288,50.8312236 C391.466632,50.8312236 391.010761,50.6905781 390.735663,50.4092827 C390.460565,50.1279873 390.228699,49.5935342 390.040061,48.8059072 L389.379828,46.2461322 Z" id="SYNESTHESIA"></path>
        </g>
    </g>
</svg>